<svg width="400" height="500" xmlns="http://www.w3.org/2000/svg">
  <rect width="400" height="500" fill="#f8fafc"/>
  
  <!-- Header -->
  <rect x="20" y="20" width="360" height="80" fill="#3b82f6" rx="8"/>
  <text x="200" y="50" text-anchor="middle" fill="white" font-size="18" font-weight="bold">John Doe</text>
  <text x="200" y="70" text-anchor="middle" fill="#bfdbfe" font-size="12">Software Engineer</text>
  
  <!-- Contact Info -->
  <rect x="20" y="120" width="360" height="30" fill="#e5e7eb" rx="4"/>
  <text x="30" y="140" fill="#374151" font-size="10">📧 john@email.com | 📱 (555) 123-4567 | 📍 New York, NY</text>
  
  <!-- Two Column Layout -->
  <!-- Left Column -->
  <rect x="20" y="170" width="240" height="300" fill="white" stroke="#e5e7eb" rx="4"/>
  <text x="30" y="190" fill="#1f2937" font-size="14" font-weight="bold">EXPERIENCE</text>
  <line x1="30" y1="195" x2="250" y2="195" stroke="#3b82f6" stroke-width="2"/>
  
  <!-- Experience Items -->
  <circle cx="35" cy="215" r="4" fill="#3b82f6"/>
  <line x1="35" y1="215" x2="35" y2="280" stroke="#bfdbfe" stroke-width="2"/>
  <text x="50" y="220" fill="#1f2937" font-size="11" font-weight="bold">Senior Developer</text>
  <text x="50" y="235" fill="#3b82f6" font-size="10">Tech Company Inc.</text>
  <text x="50" y="250" fill="#6b7280" font-size="9">2020 - Present</text>
  
  <circle cx="35" cy="285" r="4" fill="#3b82f6"/>
  <text x="50" y="290" fill="#1f2937" font-size="11" font-weight="bold">Junior Developer</text>
  <text x="50" y="305" fill="#3b82f6" font-size="10">StartUp Co.</text>
  <text x="50" y="320" fill="#6b7280" font-size="9">2018 - 2020</text>
  
  <!-- Education -->
  <text x="30" y="360" fill="#1f2937" font-size="14" font-weight="bold">EDUCATION</text>
  <line x1="30" y1="365" x2="250" y2="365" stroke="#3b82f6" stroke-width="2"/>
  <rect x="30" y="375" width="220" height="40" fill="#f3f4f6" rx="4"/>
  <text x="35" y="390" fill="#1f2937" font-size="10" font-weight="bold">Computer Science Degree</text>
  <text x="35" y="405" fill="#3b82f6" font-size="9">University Name</text>
  
  <!-- Right Column -->
  <rect x="280" y="170" width="100" height="300" fill="#3b82f6" rx="4"/>
  <text x="290" y="190" fill="white" font-size="12" font-weight="bold">SKILLS</text>
  <line x1="290" y1="195" x2="370" y2="195" stroke="white" stroke-width="1"/>
  
  <!-- Skills with progress bars -->
  <text x="290" y="215" fill="white" font-size="9">JavaScript</text>
  <rect x="290" y="220" width="70" height="4" fill="rgba(255,255,255,0.3)" rx="2"/>
  <rect x="290" y="220" width="60" height="4" fill="white" rx="2"/>
  
  <text x="290" y="240" fill="white" font-size="9">React</text>
  <rect x="290" y="245" width="70" height="4" fill="rgba(255,255,255,0.3)" rx="2"/>
  <rect x="290" y="245" width="50" height="4" fill="white" rx="2"/>
  
  <text x="290" y="265" fill="white" font-size="9">Node.js</text>
  <rect x="290" y="270" width="70" height="4" fill="rgba(255,255,255,0.3)" rx="2"/>
  <rect x="290" y="270" width="55" height="4" fill="white" rx="2"/>
  
  <!-- Languages -->
  <text x="290" y="310" fill="white" font-size="12" font-weight="bold">LANGUAGES</text>
  <line x1="290" y1="315" x2="370" y2="315" stroke="white" stroke-width="1"/>
  <text x="290" y="335" fill="white" font-size="9">English - Native</text>
  <text x="290" y="350" fill="white" font-size="9">Spanish - Fluent</text>
  
  <!-- Template Label -->
  <rect x="300" y="480" width="80" height="15" fill="#1f2937" rx="7"/>
  <text x="340" y="490" text-anchor="middle" fill="white" font-size="8">Template 2</text>
</svg>