<svg width="400" height="500" xmlns="http://www.w3.org/2000/svg">
  <rect width="400" height="500" fill="#f8fafc"/>
  
  <!-- Left Sidebar -->
  <rect x="0" y="0" width="150" height="500" fill="url(#purpleGradient)"/>
  
  <!-- Gradient Definition -->
  <defs>
    <linearGradient id="purpleGradient" x1="0%" y1="0%" x2="0%" y2="100%">
      <stop offset="0%" style="stop-color:#7c3aed;stop-opacity:1" />
      <stop offset="100%" style="stop-color:#5b21b6;stop-opacity:1" />
    </linearGradient>
  </defs>
  
  <!-- Profile Circle -->
  <circle cx="75" cy="60" r="30" fill="rgba(255,255,255,0.2)"/>
  <text x="75" y="67" text-anchor="middle" fill="white" font-size="20" font-weight="bold">JD</text>
  
  <!-- Name and Title -->
  <text x="75" y="110" text-anchor="middle" fill="white" font-size="14" font-weight="bold">John Doe</text>
  <text x="75" y="125" text-anchor="middle" fill="#c4b5fd" font-size="10">Software Engineer</text>
  
  <!-- Contact Section -->
  <text x="20" y="160" fill="white" font-size="12" font-weight="bold">CONTACT</text>
  <line x1="20" y1="165" x2="130" y2="165" stroke="#a855f7" stroke-width="1"/>
  
  <text x="20" y="185" fill="white" font-size="8">📧 john@email.com</text>
  <text x="20" y="200" fill="white" font-size="8">📱 (555) 123-4567</text>
  <text x="20" y="215" fill="white" font-size="8">📍 New York, NY</text>
  <text x="20" y="230" fill="white" font-size="8">💼 linkedin.com/in/john</text>
  
  <!-- Skills Section -->
  <text x="20" y="260" fill="white" font-size="12" font-weight="bold">SKILLS</text>
  <line x1="20" y1="265" x2="130" y2="265" stroke="#a855f7" stroke-width="1"/>
  
  <!-- Skill bars -->
  <text x="20" y="285" fill="white" font-size="9">JavaScript</text>
  <rect x="20" y="290" width="110" height="3" fill="rgba(255,255,255,0.3)" rx="1"/>
  <rect x="20" y="290" width="90" height="3" fill="white" rx="1"/>
  
  <text x="20" y="310" fill="white" font-size="9">React</text>
  <rect x="20" y="315" width="110" height="3" fill="rgba(255,255,255,0.3)" rx="1"/>
  <rect x="20" y="315" width="80" height="3" fill="white" rx="1"/>
  
  <text x="20" y="335" fill="white" font-size="9">Node.js</text>
  <rect x="20" y="340" width="110" height="3" fill="rgba(255,255,255,0.3)" rx="1"/>
  <rect x="20" y="340" width="85" height="3" fill="white" rx="1"/>
  
  <!-- Languages -->
  <text x="20" y="370" fill="white" font-size="12" font-weight="bold">LANGUAGES</text>
  <line x1="20" y1="375" x2="130" y2="375" stroke="#a855f7" stroke-width="1"/>
  <text x="20" y="395" fill="white" font-size="9">English - Native</text>
  <text x="20" y="410" fill="white" font-size="9">Spanish - Fluent</text>
  
  <!-- Right Content Area -->
  <rect x="150" y="0" width="250" height="500" fill="white"/>
  
  <!-- Professional Summary -->
  <text x="170" y="30" fill="#1f2937" font-size="14" font-weight="bold">PROFESSIONAL SUMMARY</text>
  <line x1="170" y1="35" x2="380" y2="35" stroke="#7c3aed" stroke-width="2"/>
  <text x="170" y="55" fill="#4b5563" font-size="9">Experienced software engineer with 5+ years</text>
  <text x="170" y="68" fill="#4b5563" font-size="9">developing web applications and leading teams.</text>
  
  <!-- Experience -->
  <text x="170" y="100" fill="#1f2937" font-size="14" font-weight="bold">PROFESSIONAL EXPERIENCE</text>
  <line x1="170" y1="105" x2="380" y2="105" stroke="#7c3aed" stroke-width="2"/>
  
  <!-- Experience Item 1 -->
  <text x="170" y="125" fill="#1f2937" font-size="11" font-weight="bold">Senior Software Engineer</text>
  <text x="170" y="140" fill="#7c3aed" font-size="10" font-weight="bold">Tech Company Inc.</text>
  <rect x="300" y="125" width="70" height="15" fill="#ede9fe" rx="7"/>
  <text x="335" y="135" text-anchor="middle" fill="#7c3aed" font-size="8">2020 - Present</text>
  
  <circle cx="175" cy="155" r="2" fill="#7c3aed"/>
  <text x="185" y="160" fill="#4b5563" font-size="8">Led development of microservices architecture</text>
  <circle cx="175" cy="170" r="2" fill="#7c3aed"/>
  <text x="185" y="175" fill="#4b5563" font-size="8">Mentored junior developers and code reviews</text>
  
  <!-- Experience Item 2 -->
  <text x="170" y="200" fill="#1f2937" font-size="11" font-weight="bold">Software Developer</text>
  <text x="170" y="215" fill="#7c3aed" font-size="10" font-weight="bold">StartUp Co.</text>
  <rect x="300" y="200" width="70" height="15" fill="#ede9fe" rx="7"/>
  <text x="335" y="210" text-anchor="middle" fill="#7c3aed" font-size="8">2018 - 2020</text>
  
  <circle cx="175" cy="230" r="2" fill="#7c3aed"/>
  <text x="185" y="235" fill="#4b5563" font-size="8">Built responsive web applications</text>
  <circle cx="175" cy="245" r="2" fill="#7c3aed"/>
  <text x="185" y="250" fill="#4b5563" font-size="8">Implemented RESTful APIs and databases</text>
  
  <!-- Education -->
  <text x="170" y="280" fill="#1f2937" font-size="14" font-weight="bold">EDUCATION</text>
  <line x1="170" y1="285" x2="380" y2="285" stroke="#7c3aed" stroke-width="2"/>
  
  <rect x="170" y="300" width="210" height="50" fill="#f3f4f6" stroke="#7c3aed" stroke-width="2" rx="4"/>
  <text x="180" y="320" fill="#1f2937" font-size="11" font-weight="bold">Bachelor of Computer Science</text>
  <text x="180" y="335" fill="#7c3aed" font-size="10" font-weight="bold">University of Technology</text>
  <rect x="300" y="340" width="70" height="15" fill="#7c3aed" rx="7"/>
  <text x="335" y="350" text-anchor="middle" fill="white" font-size="8">2014 - 2018</text>
  
  <!-- Projects -->
  <text x="170" y="380" fill="#1f2937" font-size="14" font-weight="bold">PROJECTS</text>
  <line x1="170" y1="385" x2="380" y2="385" stroke="#7c3aed" stroke-width="2"/>
  
  <rect x="170" y="400" width="210" height="40" fill="#f9fafb" stroke="#7c3aed" stroke-width="1" rx="4"/>
  <text x="180" y="415" fill="#1f2937" font-size="10" font-weight="bold">E-commerce Platform</text>
  <text x="180" y="430" fill="#4b5563" font-size="8">Full-stack web application with React and Node.js</text>
  
  <!-- Template Label -->
  <rect x="300" y="480" width="80" height="15" fill="#1f2937" rx="7"/>
  <text x="340" y="490" text-anchor="middle" fill="white" font-size="8">Template 3</text>
</svg>